<?xml version="1.0" encoding="utf-8"?>
<!-- Generator: Adobe Illustrator 25.2.3, SVG Export Plug-In . SVG Version: 6.00 Build 0)  -->
<svg version="1.1" id="Layer_1" xmlns="http://www.w3.org/2000/svg" xmlns:xlink="http://www.w3.org/1999/xlink" x="0px" y="0px"
	 viewBox="0 0 283.46 283.46" style="enable-background:new 0 0 283.46 283.46;" xml:space="preserve">
<style type="text/css">
	.st0{fill:#58595B;}
	.st1{fill:#0E75BC;}
</style>
<path class="st0" d="M37.33,187.14c-3.41,0-6.42-0.48-9.03-1.43c-2.61-0.95-4.8-2.21-6.56-3.77c-1.76-1.56-3.09-3.34-3.99-5.33
	c-0.9-1.99-1.34-4.03-1.34-6.11c0-2.14,0.46-4.2,1.39-6.2c0.92-1.99,2.27-3.76,4.05-5.31c1.78-1.54,3.97-2.79,6.57-3.73
	c2.6-0.94,5.59-1.41,8.97-1.41c3.38,0,6.38,0.47,8.99,1.41c2.61,0.94,4.81,2.18,6.59,3.73c1.78,1.55,3.13,3.32,4.05,5.33
	c0.92,2.01,1.39,4.07,1.39,6.17c0,1.36-0.19,2.69-0.56,3.99c-0.38,1.3-0.93,2.54-1.65,3.73c-0.72,1.18-1.63,2.29-2.71,3.31
	c-1.08,1.03-2.33,1.93-3.75,2.71l5.81,6.76h-4.16l-4.64-5.42c-1.36,0.49-2.82,0.87-4.38,1.15C40.8,187,39.13,187.14,37.33,187.14z
	 M42.4,175.65l5.03,5.89c2.25-1.21,3.96-2.79,5.13-4.74c1.17-1.95,1.75-4.04,1.75-6.26c0-1.76-0.38-3.45-1.13-5.07
	c-0.75-1.62-1.85-3.05-3.29-4.29c-1.44-1.24-3.21-2.22-5.31-2.95c-2.09-0.72-4.5-1.08-7.21-1.08c-2.69,0-5.08,0.36-7.19,1.08
	c-2.11,0.72-3.88,1.7-5.31,2.93c-1.43,1.23-2.52,2.65-3.27,4.27c-0.75,1.62-1.13,3.31-1.13,5.07c0,1.76,0.37,3.45,1.11,5.07
	c0.74,1.62,1.82,3.04,3.25,4.27c1.43,1.23,3.19,2.21,5.29,2.95c2.09,0.74,4.51,1.11,7.26,1.11c2.63,0,4.98-0.35,7.06-1.04
	l-6.15-7.19H42.4z"/>
<path class="st0" d="M70.14,169.16v10.75c0,2.11,0.5,3.55,1.52,4.31c1.01,0.77,2.54,1.15,4.59,1.15c1.07,0,2.18-0.08,3.34-0.24
	c1.16-0.16,2.25-0.35,3.29-0.59c1.04-0.23,1.99-0.49,2.84-0.78c0.85-0.29,1.54-0.56,2.06-0.82v-13.78h3.68v18.29h-3.6v-2.08
	c-0.58,0.29-1.32,0.59-2.23,0.89c-0.91,0.3-1.92,0.57-3.03,0.8c-1.11,0.23-2.29,0.42-3.53,0.59c-1.24,0.16-2.49,0.24-3.73,0.24
	c-3.06,0-5.32-0.56-6.76-1.69s-2.17-3.03-2.17-5.72v-11.31H70.14z"/>
<path class="st0" d="M118.49,175.7c0-0.81-0.14-1.5-0.41-2.08c-0.28-0.58-0.73-1.05-1.36-1.43c-0.64-0.37-1.47-0.66-2.49-0.84
	c-1.03-0.19-2.29-0.28-3.79-0.28c-1.53,0-3.1,0.12-4.72,0.35c-1.62,0.23-3.48,0.68-5.59,1.34l-0.52-2.3c2.17-0.75,4.17-1.23,6-1.45
	c1.83-0.22,3.49-0.32,4.96-0.32c2.14,0,3.94,0.14,5.42,0.41c1.47,0.28,2.67,0.69,3.6,1.26c0.92,0.56,1.59,1.26,1.99,2.1
	c0.4,0.84,0.61,1.82,0.61,2.95v12.05h-3.64v-2.17c-1.94,0.78-3.81,1.41-5.63,1.88c-1.82,0.48-3.79,0.72-5.89,0.72
	c-2.95,0-5.17-0.48-6.67-1.45c-1.5-0.97-2.25-2.32-2.25-4.05c0-1.47,0.57-2.64,1.71-3.49c1.14-0.85,2.98-1.42,5.52-1.71
	L118.49,175.7z M108.01,185.75c1.88,0,3.68-0.22,5.42-0.67c1.73-0.45,3.42-1,5.07-1.67v-6.02l-11.78,1.43
	c-0.95,0.12-1.75,0.28-2.38,0.48c-0.64,0.2-1.14,0.45-1.52,0.74c-0.38,0.29-0.64,0.61-0.8,0.95c-0.16,0.35-0.24,0.74-0.24,1.17
	c0,1.15,0.52,2.04,1.56,2.66C104.36,185.44,105.93,185.75,108.01,185.75z"/>
<path class="st0" d="M155.11,154.29v33.15h-3.6v-2.12c-0.61,0.26-1.35,0.54-2.23,0.84c-0.88,0.3-1.83,0.58-2.84,0.82
	c-1.01,0.25-2.07,0.45-3.18,0.63c-1.11,0.17-2.2,0.26-3.27,0.26c-1.85,0-3.45-0.26-4.81-0.78s-2.48-1.23-3.38-2.12
	c-0.9-0.89-1.56-1.91-1.99-3.05s-0.65-2.35-0.65-3.62c0-1.3,0.23-2.53,0.69-3.68c0.46-1.16,1.16-2.17,2.08-3.06
	c0.92-0.88,2.09-1.58,3.49-2.1c1.4-0.52,3.04-0.78,4.92-0.78c1.1,0,2.19,0.09,3.27,0.26c1.08,0.17,2.11,0.38,3.08,0.63
	c0.97,0.25,1.86,0.51,2.67,0.8c0.81,0.29,1.49,0.56,2.04,0.82v-16.9H155.11z M151.42,173.53c-0.55-0.2-1.21-0.44-1.99-0.71
	c-0.78-0.28-1.63-0.53-2.54-0.78c-0.91-0.25-1.86-0.45-2.84-0.61c-0.98-0.16-1.95-0.24-2.9-0.24c-1.36,0-2.55,0.18-3.58,0.54
	c-1.03,0.36-1.88,0.86-2.58,1.5c-0.69,0.64-1.22,1.39-1.58,2.25c-0.36,0.87-0.54,1.82-0.54,2.86c0,1.01,0.17,1.94,0.52,2.79
	c0.35,0.85,0.87,1.6,1.56,2.23c0.69,0.63,1.55,1.13,2.56,1.47c1.01,0.35,2.18,0.52,3.51,0.52c0.92,0,1.89-0.08,2.9-0.24
	c1.01-0.16,1.98-0.36,2.9-0.61c0.92-0.25,1.79-0.5,2.6-0.76c0.81-0.26,1.47-0.5,1.99-0.74V173.53z"/>
<path class="st1" d="M193.37,159.97c-2.34-0.9-4.77-1.61-7.28-2.15c-2.51-0.53-5.05-0.8-7.63-0.8c-1.67,0-3.19,0.12-4.55,0.37
	c-1.36,0.25-2.52,0.62-3.49,1.13c-0.97,0.5-1.71,1.13-2.23,1.88s-0.78,1.65-0.78,2.69c0,1.33,0.51,2.38,1.54,3.16
	c1.02,0.78,2.75,1.45,5.18,1.99c0.89,0.2,1.91,0.4,3.03,0.61s2.3,0.41,3.51,0.63c1.21,0.22,2.43,0.44,3.64,0.67
	c1.21,0.23,2.34,0.48,3.38,0.74c1.39,0.35,2.59,0.74,3.62,1.19c1.02,0.45,1.88,0.97,2.56,1.56c0.68,0.59,1.18,1.28,1.52,2.06
	c0.33,0.78,0.5,1.69,0.5,2.73c0,3.03-1.34,5.37-4.01,7c-2.67,1.63-6.56,2.45-11.68,2.45c-1.15,0-2.46-0.05-3.9-0.15
	c-1.44-0.1-2.94-0.27-4.48-0.5c-1.55-0.23-3.09-0.54-4.64-0.93c-1.55-0.39-2.97-0.89-4.27-1.5l0.91-3.08
	c1.27,0.52,2.64,0.98,4.1,1.36c1.46,0.39,2.92,0.7,4.38,0.93c1.46,0.23,2.89,0.41,4.29,0.52c1.4,0.12,2.69,0.17,3.88,0.17
	c3.78,0,6.61-0.54,8.49-1.63c1.88-1.08,2.82-2.66,2.82-4.74c0-0.63-0.1-1.22-0.3-1.75c-0.2-0.53-0.55-1-1.04-1.41
	c-0.49-0.4-1.14-0.77-1.95-1.11c-0.81-0.33-1.81-0.63-2.99-0.89c-0.84-0.17-1.81-0.35-2.9-0.54c-1.1-0.19-2.23-0.37-3.4-0.56
	c-1.17-0.19-2.35-0.39-3.53-0.61c-1.18-0.22-2.28-0.45-3.29-0.72c-1.39-0.35-2.64-0.74-3.75-1.19c-1.11-0.45-2.06-0.99-2.84-1.62
	c-0.78-0.63-1.39-1.37-1.82-2.21c-0.43-0.84-0.65-1.82-0.65-2.95c0-1.5,0.38-2.81,1.15-3.92c0.77-1.11,1.83-2.04,3.21-2.77
	c1.37-0.74,3.02-1.29,4.94-1.67c1.92-0.38,4.04-0.56,6.35-0.56c2.8,0,5.49,0.26,8.06,0.78c2.57,0.52,5,1.27,7.28,2.25L193.37,159.97
	z"/>
<path class="st1" d="M220.36,153.86l20.24,33.58h-4.51l-5.94-10.01h-20.67l-5.93,10.01h-4.33l20.28-33.58H220.36z M211.05,174.83
	h17.55l-8.75-14.73L211.05,174.83z"/>
<path class="st1" d="M273.57,154.29v3.29h-14.39v29.86h-4.07v-29.86h-14.39v-3.29H273.57z"/>
<path class="st1" d="M152.19,92.88c-5.66-6.64-21.58-2.35-35.55,9.57c-0.01,0.01-0.01,0.01-0.02,0.02l10.27,12h-4.16l-8.45-9.91
	c-12.35,11.53-18.02,25.24-12.68,31.49c5.66,6.64,21.58,2.35,35.55-9.57S157.85,99.52,152.19,92.88z"/>
<polygon class="st0" points="127.03,70.49 130.73,74.2 123.31,74.2 "/>
<polygon class="st0" points="82.92,114.59 86.63,110.89 86.63,118.31 "/>
<polygon class="st0" points="170.87,114.35 167.16,118.05 167.16,110.63 "/>
<polygon class="st0" points="126.78,158.44 130.48,154.74 123.05,154.74 "/>
</svg>
